<svg xmlns="http://www.w3.org/2000/svg" viewBox="0 0 129.08 139.62"><defs><style>.cls-1,.cls-2{fill:none;stroke:#fff;stroke-width:2px;}.cls-1{stroke-miterlimit:10;}.cls-2{stroke-linecap:round;stroke-linejoin:round;}</style></defs><title>Asset last</title><g id="Layer_2" data-name="Layer 2"><g id="Layer_1-2" data-name="Layer 1"><path class="cls-1" d="M34.27,1.52a30.81,30.81,0,0,0-8.44,2.8A32.61,32.61,0,0,0,10.94,19.13a30.72,30.72,0,0,0-3.4,13.08A31.52,31.52,0,0,0,8.86,42.7c1.48,4.14,1.51,4.19,2.67,6.27a90.67,90.67,0,0,0,5,8.1c.73,1,1.58,2.25,1.92,2.77.83,1.25,5.33,6.66,7.56,9.07,4.22,4.55,12.46,12.53,15.36,14.86.49.42,1.73,1.45,2.72,2.31,4.24,3.7,14.08,11.26,19.6,15.07,2.15,1.48,2.15,1.48,4.09,1.5s2-.05,3.32-1c.72-.52,2-1.4,2.72-1.92s1.94-1.37,2.64-1.86c1.14-.81,10.56-8.11,12.27-9.48,8.34-6.81,19-17,23.85-23,.75-.9,1.84-2.22,2.44-2.92a68.46,68.46,0,0,0,4.4-6.12,56.71,56.71,0,0,0,3.16-5.05c.67-1.14,1.35-2.25,1.53-2.46a29.37,29.37,0,0,0,1.71-3.75c1.78-4.3,2.72-11.08,2-15L127.32,27a39.11,39.11,0,0,0-2.85-8.31,33.48,33.48,0,0,0-5.59-7.64,31.53,31.53,0,0,0-22.48-10,16.41,16.41,0,0,0-6,.55,29.14,29.14,0,0,0-9.58,4L78.14,7.5a66.82,66.82,0,0,0-6,5.49l-4.35,4.36-3.94-4a66,66,0,0,0-6.53-5.88c-2.54-1.87-7-4.46-8.21-4.74-.33-.08-1.11-.31-1.76-.52A25.83,25.83,0,0,0,34.27,1.52Z"/><path class="cls-1" d="M43.83,10.82a10.06,10.06,0,0,1,2.28.78,1.07,1.07,0,0,0,.59.28c.57,0,3.52,1.81,5.67,3.52s4.61,4.15,9.87,9.84c2.33,2.52,2.77,2.88,4.09,3.32a2.94,2.94,0,0,0,2.82,0c1.56-.51,2.88-1.7,6-5.36,6.32-7.3,11.68-11.24,17-12.5a22.71,22.71,0,0,1,8.73.2,23.17,23.17,0,0,1,17.45,18.62A22.3,22.3,0,0,1,116,44.2a85.45,85.45,0,0,1-11.58,16.5c-2.82,3.23-9.27,9.71-12.84,12.89l-3.37,3c-.08.08-1.29,1.12-2.72,2.31s-2.93,2.46-3.37,2.85c-2.25,2-11.93,9.29-13.54,10.25-.83.5-.85.5-1.68,0-2.26-1.32-11.14-8.21-17-13.18C37.2,68.1,26.14,56,21.53,47.72l-1.79-3.1a22.37,22.37,0,0,1-2.9-11.81c.1-2.67.78-6.35,1.24-6.81a1,1,0,0,0,.24-.65,24.1,24.1,0,0,1,2.87-5.52,23.19,23.19,0,0,1,18.26-9.48A17,17,0,0,1,43.83,10.82Z"/><path class="cls-1" d="M55.85,106.75a26.57,26.57,0,0,0,14.4,5.94l9.35,1.74a4.26,4.26,0,0,0,3.36-.81l15.89-12a4,4,0,0,1,2.13-.85,4.65,4.65,0,0,1,3.45,1.18l.26.24a4.84,4.84,0,0,1,0,6.42L81,135.89a7.77,7.77,0,0,1-6.57,2.7l-29.54-2.82a7.44,7.44,0,0,1-4.74-2.35,43.86,43.86,0,0,0-6.8-5.9,42.08,42.08,0,0,0-10.14-5.24,4.23,4.23,0,0,0-.7-.18l-17.75-3a4.54,4.54,0,0,1-3.69-4.36,64.34,64.34,0,0,1,.21-8.41,63.45,63.45,0,0,1,1.56-9.49,4.57,4.57,0,0,1,3.79-3.56c1.67-.22,3.08-.49,4.19-.75,4.94-1.12,6.84-2.44,10.87-2.86a23,23,0,0,1,6.72.33A32.29,32.29,0,0,1,39.5,93.58"/><path class="cls-1" d="M30.89,90.46c5,.17,8.88,3.38,13.49,6.36a58.93,58.93,0,0,1,12.2,10.73,4.29,4.29,0,0,0,1,.8,29.28,29.28,0,0,0,12.72,4.34l6.09,1.13a6.25,6.25,0,0,1,3.53,2,2.1,2.1,0,0,1,.68,1.71l-.36,1.64a3.87,3.87,0,0,1-2.75,2.94l-2.1.54a20,20,0,0,1-7,.55L56.21,122a9.74,9.74,0,0,1-4.54-1.66c-3.44-2.35-4.79-4.52-8.89-6.94"/><line class="cls-2" x1="37.47" y1="25.64" x2="37.47" y2="38.31"/><line class="cls-2" x1="31.15" y1="31.98" x2="43.78" y2="31.98"/><path class="cls-2" d="M97.6,58.42a33.13,33.13,0,0,0,6.81-7.23,37.85,37.85,0,0,0,4.52-8.86"/><line class="cls-2" x1="111.35" y1="36.77" x2="112.52" y2="33.18"/></g></g></svg>