<svg xmlns="http://www.w3.org/2000/svg" viewBox="0 0 113.56 101.53"><defs><style>.cls-1{fill:none;stroke:#fff;stroke-linecap:round;stroke-linejoin:round;stroke-width:2px;}</style></defs><title>Asset 33</title><g id="Layer_2" data-name="Layer 2"><g id="Layer_1-2" data-name="Layer 1"><circle class="cls-1" cx="39.5" cy="39.67" r="30.35"/><circle class="cls-1" cx="39.43" cy="39.43" r="38.43"/><circle class="cls-1" cx="38.85" cy="39.36" r="3.88"/><line class="cls-1" x1="13.47" y1="39.46" x2="19.07" y2="39.46"/><line class="cls-1" x1="38.86" y1="13.46" x2="38.86" y2="18.99"/><line class="cls-1" x1="58.38" y1="39.41" x2="64.67" y2="39.41"/><line class="cls-1" x1="38.93" y1="59.44" x2="38.93" y2="64.69"/><line class="cls-1" x1="39" y1="24.23" x2="39" y2="35.48"/><line class="cls-1" x1="41.76" y1="41.92" x2="56.55" y2="57"/><path class="cls-1" d="M72.27,13.46a36.46,36.46,0,0,1,6.32-2.62A37,37,0,0,1,86.3,9.32a25.5,25.5,0,0,1,16.61,7.22,25.6,25.6,0,0,1,7,8.87,25.91,25.91,0,0,1,2.47,10.07,30.44,30.44,0,0,1-2.58,16.21Q99.9,64.05,90,76.4L69.86,99.08a6.9,6.9,0,0,1-10.4-8.59L76.85,70,52.23,99.08a8.57,8.57,0,0,1-8.3-2.35,8.81,8.81,0,0,1-2.17-7.1l5.42-7,4.76-6.18"/><path class="cls-1" d="M36.19,77.86a8.18,8.18,0,0,0,4.64,5,8,8,0,0,0,6.35-.32"/><path class="cls-1" d="M86.87,29.85a14,14,0,0,0-2.39,3.55,13.79,13.79,0,0,0-1.19,4.19,10.9,10.9,0,0,0,1.19,4.63,10.68,10.68,0,0,0,2.39,3.1,15.08,15.08,0,0,1,2.5,4.06,15.26,15.26,0,0,1,1.08,4.29,28.17,28.17,0,0,1-2.15,5.49,27.69,27.69,0,0,1-4.53,6.34A9.41,9.41,0,0,0,90,76.4"/></g></g></svg>